# Blender v2.74 (sub 0) OBJ File: 'Brain Model 03-21-15.blend'
# www.blender.org
mtllib fourth_Ventricle.mtl
o 4th_Ventricle_Ventricles.003
v 2.205692 -78.672722 -185.540802
v 2.204563 -76.317192 -185.933929
v -0.170284 -79.058037 -185.817688
v 3.221287 -76.006355 -187.244049
v 5.573338 -78.815559 -186.704102
v 4.719852 -79.186852 -186.936310
v 1.895329 -76.017159 -187.905518
v 1.495975 -77.950813 -186.634125
v 0.596104 -79.241081 -187.707031
v 1.213047 -80.193962 -188.062836
v 4.963718 -79.119850 -188.365753
v 5.193394 -80.261574 -188.940460
v 1.893162 -75.312370 -189.073303
v 3.202641 -75.866035 -189.248108
v 1.529423 -77.235283 -189.921356
v -0.354794 -78.544731 -189.791779
v 5.770390 -79.126945 -190.105103
v -0.262264 -79.773674 -189.680267
v 1.470005 -76.313087 -191.458527
v 0.802311 -78.847847 -191.374786
v 4.304600 -78.009727 -190.243195
v -0.163540 -80.179970 -190.871918
v -0.549831 -77.810600 -192.139679
v 2.975224 -74.952354 -192.182678
v 3.253452 -77.999046 -192.738739
v -1.009212 -78.775383 -192.363983
v 0.852665 -80.147392 -192.959045
v 4.666782 -80.374290 -191.410217
v 3.615726 -74.673698 -193.971191
v 5.320072 -78.893410 -192.141602
v 4.207188 -79.191277 -194.075165
v 1.692142 -74.951485 -192.312469
v 1.485935 -76.909477 -193.938354
v 5.683018 -79.953880 -194.952911
v 0.369022 -77.670631 -195.369263
v -0.627529 -80.095436 -194.914093
v 2.364872 -73.964256 -195.330780
v 3.723728 -77.682259 -195.272278
v 3.665226 -74.612038 -196.677704
v -0.914272 -77.592247 -196.352478
v -0.324520 -80.157433 -196.958374
v 4.737980 -80.296654 -196.730804
v 3.449162 -80.925499 -195.917877
v 1.060337 -82.130135 -197.063232
v 2.730961 -74.384865 -197.955231
v 1.439304 -75.264427 -196.466248
v 0.672489 -77.153831 -197.761414
v 4.785130 -78.727547 -197.474335
v 3.005619 -80.648491 -198.012939
v 1.438969 -80.477776 -198.778900
v 4.702915 -75.352531 -198.349854
v 2.145145 -72.586784 -199.873474
v 3.513279 -71.820168 -200.406891
v 3.663700 -74.591713 -199.430450
v 1.674656 -74.658897 -198.166687
v 3.910282 -79.380135 -199.642670
v -0.466396 -76.683098 -199.601471
v -0.277340 -78.469856 -199.758118
v 1.473240 -79.987724 -199.660706
v 1.997410 -69.590706 -200.651520
v 1.690464 -72.865257 -200.973236
v 2.707523 -72.695335 -202.064514
v 2.207523 -73.195335 -202.064514
v 1.707523 -73.695335 -202.064514
v 0.915043 -75.267555 -201.440613
v 0.905552 -77.005074 -201.411285
v 1.772709 -78.682381 -201.746948
v 3.170231 -69.634071 -201.329956
v 2.764591 -70.975288 -202.153015
v 3.153416 -70.176826 -204.619385
v 1.000156 -72.425560 -203.957855
v 3.904972 -76.690971 -200.775787
v 0.707951 -76.135658 -203.729828
v 2.057133 -78.096794 -203.876129
v 3.706333 -70.646309 -201.264709
v 1.707920 -72.744209 -205.095856
v 2.716434 -76.745110 -204.387451
v 3.706211 -70.662209 -204.871033
v 1.913761 -76.996880 -206.122345
v 3.167545 -68.875374 -207.235840
v 2.242130 -70.549690 -206.547302
v 1.712284 -75.054588 -207.285095
v 3.689915 -75.524559 -206.022003
v 1.862888 -75.012459 -209.024017
v 3.962376 -70.853767 -208.454895
v 2.709843 -68.648293 -210.057404
v 1.691074 -72.971367 -209.615326
v 2.713322 -71.968452 -209.844574
v 1.727085 -71.461357 -211.080231
v 3.859989 -71.946007 -210.907562
v 3.441593 -74.664635 -209.700195
v 3.245670 -67.620216 -209.577057
v 4.229496 -68.522514 -209.050903
v 2.366184 -68.059990 -211.407501
v 4.180698 -69.573814 -212.988342
v 2.976841 -73.147316 -213.310699
v 2.749332 -69.849937 -213.551819
v 4.651646 -71.921638 -212.976074
vn -0.804200 0.097500 0.586400
vn 0.328400 0.155600 0.931600
vn -0.195400 0.755300 0.625600
vn 0.175000 -0.778900 0.602200
vn 0.086200 -0.874400 0.477400
vn -0.089600 0.982500 0.163600
vn -0.927600 0.319200 0.194100
vn 0.566900 0.586000 0.579000
vn -0.628500 0.707300 -0.323500
vn -0.004600 -0.995500 0.094600
vn 0.384400 0.495700 -0.778800
vn 0.745100 0.551900 -0.374400
vn 0.393300 -0.919100 0.024000
vn -0.159900 -0.434500 0.886300
vn 0.978900 0.110300 0.172200
vn 0.092700 -0.868200 0.487500
vn 0.395800 0.786500 0.474000
vn -0.985100 0.146500 0.090300
vn 0.594600 0.493900 0.634500
vn -0.973100 0.226900 0.039500
vn -0.554200 0.814500 0.171600
vn -0.859800 0.214100 0.463700
vn -0.913300 -0.031900 0.405900
vn -0.060500 -0.978100 -0.199000
vn -0.663600 -0.597700 0.450000
vn 0.882700 0.468900 -0.032600
vn 0.569500 0.779500 0.260900
vn 0.906700 -0.029300 0.420600
vn 0.028900 -0.723100 -0.690100
vn 0.405100 0.881400 0.243000
vn -0.703900 0.690900 -0.165000
vn -0.983900 0.133900 0.118400
vn 0.899400 0.432200 0.064900
vn -0.947800 0.255900 0.190200
vn -0.514700 0.690300 -0.508400
vn 0.608200 0.792600 -0.043600
vn 0.123600 -0.936100 0.329400
vn 0.260000 0.769300 0.583600
vn -0.870700 0.329700 0.365000
vn -0.812300 -0.113100 -0.572100
vn 0.838200 -0.489000 -0.241400
vn 0.044900 -0.740900 0.670100
vn -0.889200 -0.450500 0.079900
vn -0.084400 0.539300 0.837900
vn -0.584800 0.497300 0.640800
vn 0.911000 0.153100 -0.383000
vn -0.406100 0.136800 0.903500
vn 0.433900 0.883000 -0.179000
vn -0.044300 -0.998300 -0.037200
vn -0.626200 -0.712700 -0.316000
vn -0.685900 0.506300 -0.522700
vn -0.693600 0.459300 -0.554900
vn 0.267200 0.933000 0.241000
vn -0.030200 0.952000 0.304700
vn 0.940000 0.023700 0.340300
vn 0.983300 -0.041400 0.177300
vn 0.346600 0.920700 0.179500
vn -0.587200 0.808900 0.028100
vn 0.772200 -0.520600 -0.364300
vn 0.211700 -0.959500 -0.185800
vn -0.483100 -0.805000 0.344400
vn -0.901300 0.314500 -0.297700
vn 0.116900 -0.900100 -0.419700
vn 0.774800 0.274200 -0.569700
vn 0.759400 0.635100 -0.141500
vn -0.287500 -0.907800 0.305300
vn 0.025300 -0.733200 0.679600
vn 0.018700 -0.731900 0.681100
vn -0.817200 0.576300 0.006300
vn -0.996700 0.058200 0.056300
vn 0.754400 0.285000 0.591300
vn -0.788900 0.508300 0.345400
vn -0.551400 0.367200 0.749000
vn 0.698400 0.535700 -0.474500
vn 0.916600 0.148400 0.371300
vn 0.414800 -0.908800 -0.045300
vn 0.026200 -0.715600 0.698000
vn -0.816600 -0.567800 -0.103800
vn 0.360200 0.927700 -0.098400
vn -0.841800 0.534700 0.073900
vn -0.918500 0.394200 -0.031300
vn -0.092900 0.975600 0.199000
vn -0.718300 -0.000800 -0.695700
vn -0.971800 -0.190800 -0.138300
vn -0.212300 0.959800 -0.183400
vn 0.413000 0.899600 -0.142100
vn 0.868200 0.144300 0.474800
vn 0.916800 0.180500 0.356200
vn -0.673100 0.070200 -0.736200
vn 0.601500 -0.356800 -0.714800
vn -0.680600 -0.446900 -0.580600
vn 0.329900 -0.924300 -0.192000
vn 0.521100 -0.824800 -0.219400
vn 0.236900 -0.725400 -0.646300
vn -0.307400 0.645600 0.699100
vn 0.704000 0.612600 0.359200
vn -0.874600 0.410800 0.257600
vn 0.461300 0.870900 0.169500
vn -0.927700 0.373400 0.004600
vn -0.736900 0.386100 0.554900
vn 0.956700 -0.051000 -0.286500
vn -0.857600 -0.134300 0.496500
vn 0.932200 -0.139000 -0.334300
vn -0.737100 -0.347400 0.579600
vn 0.743800 -0.660700 -0.101300
vn 0.138600 -0.867900 -0.477000
vn 0.209500 -0.824600 -0.525500
vn -0.583900 -0.699800 -0.411600
vn 0.173000 0.335600 0.926000
vn 0.785100 0.395600 -0.476500
vn 0.213500 -0.841700 -0.496000
vn 0.640000 0.382000 0.666700
vn 0.469000 0.405000 0.784900
vn 0.223700 0.255300 0.940600
vn -0.927400 0.050500 0.370600
vn 0.845000 0.217900 0.488400
vn 0.992700 0.041800 0.112900
vn -0.947100 0.272800 0.169000
vn -0.974500 0.009100 0.224400
vn -0.426200 0.778000 -0.461500
vn 0.615700 -0.304900 -0.726600
vn -0.691000 -0.219400 -0.688800
vn -0.799200 -0.031900 -0.600200
vn -0.552200 -0.668800 -0.497700
vn -0.397700 0.564300 -0.723500
vn -0.828600 0.131100 -0.544300
vn -0.730700 -0.010900 -0.682700
vn -0.619900 0.619900 -0.481200
vn -0.898000 0.343400 -0.275200
vn -0.996100 0.006900 0.087500
vn 0.717900 -0.658300 -0.226400
vn 0.883800 0.467900 -0.002100
vn -0.737100 0.059100 0.673100
vn -0.568800 0.568800 0.594000
vn -0.994900 0.082000 0.058900
vn -0.605200 0.537900 0.586900
vn -0.820800 -0.554400 -0.137900
vn 0.898700 -0.438600 -0.000600
vn -0.882400 -0.410000 -0.230700
vn 0.619800 0.773700 -0.130800
vn -0.947700 0.315600 -0.047200
vn -0.699700 0.704700 0.117800
vn -0.792100 0.548200 0.268400
vn 0.703200 0.635100 0.319700
vn -0.681900 0.707500 0.185500
vn -0.857800 -0.121500 -0.499400
vn -0.844400 0.033600 -0.534600
vn 0.623800 -0.757200 -0.193900
vn 0.999000 0.030100 -0.034300
vn -0.880300 0.070600 -0.469100
vn 0.807700 -0.507500 -0.300100
vn -0.812200 -0.542800 -0.213900
vn 0.936800 0.346500 0.048400
vn -0.978900 0.139600 -0.149300
vn 1.000000 -0.003300 -0.000000
vn -0.995800 -0.064000 0.065600
vn 0.633400 -0.751600 -0.184000
vn 0.997200 -0.020500 0.072400
vn 0.997800 -0.064900 -0.012800
vn 0.579900 -0.667700 -0.466800
vn 0.112800 -0.965800 -0.233400
vn -0.983900 -0.155300 -0.089000
vn 0.475900 0.768400 0.427800
vn -0.904300 0.388200 0.177900
vn 0.860000 0.031700 0.509300
vn -0.828700 0.530900 0.177200
vn -0.990500 -0.009800 -0.137300
vn -0.692200 0.621800 -0.366500
vn -0.990100 0.100300 0.098700
vn -0.990100 -0.109000 -0.088400
vn 0.973400 -0.199700 -0.112400
vn -0.886700 0.296400 0.354800
vn -0.322600 -0.288300 -0.901500
vn -0.923500 0.204700 0.324300
vn 0.992900 -0.117500 0.019100
vn 0.993700 -0.111700 0.008300
vn -0.772900 0.039800 0.633200
vn -0.134000 -0.089000 -0.987000
vn -0.803800 -0.186900 0.564800
vn 0.916900 0.185800 0.353100
vn -0.832100 0.103900 -0.544800
vn -0.858400 -0.502900 -0.100800
vn 0.933800 0.015100 0.357500
vn 0.595100 -0.710700 -0.375300
vn -0.990600 -0.076600 -0.113100
vn 0.234100 -0.054800 -0.970700
usemtl Fourth_Ventricle
s off
f 1//1 2//1 8//1
f 2//2 1//2 5//2
f 3//3 1//3 8//3
f 5//4 1//4 6//4
f 1//5 3//5 6//5
f 4//6 7//6 2//6
f 2//7 7//7 8//7
f 4//8 2//8 5//8
f 8//9 9//9 3//9
f 3//10 9//10 6//10
f 11//11 7//11 4//11
f 5//12 11//12 4//12
f 5//13 6//13 11//13
f 6//14 9//14 10//14
f 11//15 6//15 12//15
f 6//16 10//16 12//16
f 14//17 13//17 7//17
f 7//18 13//18 15//18
f 14//19 7//19 11//19
f 8//20 7//20 15//20
f 8//21 15//21 16//21
f 9//22 8//22 16//22
f 16//23 18//23 9//23
f 10//24 18//24 12//24
f 10//25 9//25 18//25
f 14//26 11//26 21//26
f 17//27 21//27 11//27
f 11//28 12//28 17//28
f 17//29 12//29 18//29
f 24//30 13//30 14//30
f 24//31 19//31 13//31
f 15//32 13//32 19//32
f 24//33 14//33 21//33
f 15//34 19//34 20//34
f 16//35 15//35 20//35
f 17//36 30//36 21//36
f 18//37 22//37 17//37
f 18//38 20//38 23//38
f 23//39 26//39 18//39
f 20//40 18//40 16//40
f 30//41 17//41 28//41
f 28//42 17//42 22//42
f 18//43 26//43 22//43
f 32//44 19//44 24//44
f 19//45 32//45 23//45
f 25//46 24//46 21//46
f 20//47 19//47 23//47
f 21//48 30//48 25//48
f 27//49 28//49 22//49
f 26//50 27//50 22//50
f 23//51 32//51 33//51
f 23//52 33//52 26//52
f 29//53 37//53 24//53
f 32//54 24//54 37//54
f 29//55 24//55 25//55
f 29//56 25//56 38//56
f 38//57 25//57 30//57
f 26//58 33//58 35//58
f 28//59 31//59 30//59
f 27//60 36//60 31//60
f 26//61 36//61 27//61
f 26//62 35//62 36//62
f 31//63 28//63 27//63
f 29//64 38//64 37//64
f 38//65 30//65 34//65
f 31//66 34//66 30//66
f 31//67 43//67 34//67
f 43//68 31//68 36//68
f 37//69 46//69 32//69
f 33//70 32//70 46//70
f 39//71 37//71 38//71
f 46//72 35//72 33//72
f 36//73 35//73 40//73
f 38//74 34//74 42//74
f 42//75 48//75 38//75
f 42//76 34//76 43//76
f 44//77 43//77 36//77
f 41//78 44//78 36//78
f 37//79 39//79 45//79
f 46//80 37//80 55//80
f 47//81 35//81 46//81
f 35//82 47//82 40//82
f 40//83 50//83 41//83
f 40//84 41//84 36//84
f 55//85 37//85 45//85
f 39//86 51//86 45//86
f 48//87 51//87 39//87
f 39//88 38//88 48//88
f 50//89 40//89 47//89
f 49//90 48//90 42//90
f 50//91 44//91 41//91
f 42//92 43//92 49//92
f 49//93 43//93 44//93
f 44//94 50//94 49//94
f 52//95 55//95 45//95
f 45//96 54//96 52//96
f 52//97 61//97 55//97
f 45//98 51//98 54//98
f 47//99 46//99 55//99
f 47//100 55//100 57//100
f 72//101 51//101 48//101
f 58//102 47//102 57//102
f 48//103 56//103 72//103
f 58//104 50//104 47//104
f 56//105 48//105 49//105
f 49//106 50//106 59//106
f 59//107 56//107 49//107
f 50//108 58//108 59//108
f 54//109 53//109 52//109
f 54//110 51//110 72//110
f 59//111 67//111 56//111
f 75//112 68//112 53//112
f 60//113 53//113 68//113
f 60//114 52//114 53//114
f 52//115 60//115 61//115
f 75//116 53//116 54//116
f 54//117 72//117 75//117
f 61//118 65//118 55//118
f 55//119 65//119 66//119
f 66//120 57//120 55//120
f 67//121 72//121 56//121
f 66//122 67//122 58//122
f 58//123 57//123 66//123
f 67//124 59//124 58//124
f 60//125 68//125 69//125
f 61//126 60//126 69//126
f 69//127 62//127 61//127
f 61//128 62//128 64//128
f 65//129 61//129 64//129
f 65//130 73//130 66//130
f 67//131 77//131 72//131
f 75//132 78//132 68//132
f 69//133 71//133 62//133
f 71//134 63//134 62//134
f 71//134 64//134 63//134
f 71//135 73//135 65//135
f 65//136 64//136 71//136
f 73//137 74//137 66//137
f 67//138 74//138 77//138
f 67//139 66//139 74//139
f 70//140 68//140 78//140
f 69//141 68//141 70//141
f 71//142 69//142 70//142
f 70//143 80//143 81//143
f 78//144 80//144 70//144
f 70//145 81//145 71//145
f 71//146 81//146 76//146
f 73//147 71//147 76//147
f 72//148 77//148 83//148
f 83//149 75//149 72//149
f 73//150 76//150 79//150
f 77//151 74//151 79//151
f 74//152 73//152 79//152
f 85//153 80//153 78//153
f 81//154 82//154 76//154
f 75//155 83//155 78//155
f 82//156 79//156 76//156
f 83//157 77//157 79//157
f 78//158 83//158 85//158
f 83//159 90//159 85//159
f 83//160 79//160 84//160
f 84//161 91//161 83//161
f 84//162 79//162 82//162
f 93//163 92//163 80//163
f 92//164 86//164 80//164
f 93//165 80//165 85//165
f 81//166 80//166 86//166
f 81//167 86//167 88//167
f 81//168 88//168 87//168
f 87//169 82//169 81//169
f 87//170 84//170 82//170
f 83//171 91//171 90//171
f 92//172 94//172 86//172
f 91//173 84//173 87//173
f 94//174 89//174 86//174
f 93//175 90//175 95//175
f 90//176 93//176 85//176
f 88//177 86//177 89//177
f 91//178 87//178 88//178
f 89//179 91//179 88//179
f 98//180 95//180 90//180
f 94//181 96//181 89//181
f 89//182 96//182 91//182
f 98//183 90//183 91//183
f 91//184 96//184 98//184
f 96//185 94//185 97//185
f 98//186 96//186 97//186
